# xmcd
#
# Track frame offsets:
# 150
# 17918
# 34998
# 53665
# 71013
# 81177
# 96783
# 113118
# 129518
# 146845
# 160603
# 171765
#
# Disc length: 2549 seconds
#
# Revision: 0
# Processed by: cddbd v1.5.2PL0 Copyright (c) Steve Scherf et al.
# Submitted via: Axialis_AX_CDPlayer 2.6
#
DISCID=9f09f30c
DTITLE=Various Artist - Living Country Blues USA Volume 12 - East Coast Blu
DTITLE=es
DYEAR=1900
DGENRE=
TTITLE0=Reno Factory - "Bowling Green" John Cephas
TTITLE1=Lula's Back In Town - Guitar Slim
TTITLE2=Louise - "Bowling Green" John Cephas and "Harmonica" Phil Wiggins
TTITLE3=Three Times Seven - Archie Edwards
TTITLE4=90 Goin' North - Guitar Frank
TTITLE5=Everybody's Blues - Archie Edwards
TTITLE6=Trouble In Mind - Guitar Frank
TTITLE7=East Virginia John Henry - Archie Edwards
TTITLE8=Sittin' On Top Of The World - Archie Edwards
TTITLE9=Won't You Spread Some Flowers On My Grave - Guitar Slim
TTITLE10=Mama Don't Allow - Guitar Frank
TTITLE11=Key To The Highway - Guitar Frank
EXTD=
EXTT0=
EXTT1=
EXTT2=
EXTT3=
EXTT4=
EXTT5=
EXTT6=
EXTT7=
EXTT8=
EXTT9=
EXTT10=
EXTT11=
PLAYORDER=
